%TF.GenerationSoftware,KiCad,Pcbnew,(6.0.5-0)*%
%TF.CreationDate,2024-03-28T12:00:15+03:00*%
%TF.ProjectId,cd_sunalarm,63645f73-756e-4616-9c61-726d2e6b6963,rev?*%
%TF.SameCoordinates,Original*%
%TF.FileFunction,Paste,Top*%
%TF.FilePolarity,Positive*%
%FSLAX46Y46*%
G04 Gerber Fmt 4.6, Leading zero omitted, Abs format (unit mm)*
G04 Created by KiCad (PCBNEW (6.0.5-0)) date 2024-03-28 12:00:15*
%MOMM*%
%LPD*%
G01*
G04 APERTURE LIST*
G04 Aperture macros list*
%AMRoundRect*
0 Rectangle with rounded corners*
0 $1 Rounding radius*
0 $2 $3 $4 $5 $6 $7 $8 $9 X,Y pos of 4 corners*
0 Add a 4 corners polygon primitive as box body*
4,1,4,$2,$3,$4,$5,$6,$7,$8,$9,$2,$3,0*
0 Add four circle primitives for the rounded corners*
1,1,$1+$1,$2,$3*
1,1,$1+$1,$4,$5*
1,1,$1+$1,$6,$7*
1,1,$1+$1,$8,$9*
0 Add four rect primitives between the rounded corners*
20,1,$1+$1,$2,$3,$4,$5,0*
20,1,$1+$1,$4,$5,$6,$7,0*
20,1,$1+$1,$6,$7,$8,$9,0*
20,1,$1+$1,$8,$9,$2,$3,0*%
G04 Aperture macros list end*
%ADD10RoundRect,0.090000X0.090000X-0.139000X0.090000X0.139000X-0.090000X0.139000X-0.090000X-0.139000X0*%
%ADD11R,1.000000X1.150000*%
%ADD12RoundRect,0.588235X-0.811765X-0.411765X0.811765X-0.411765X0.811765X0.411765X-0.811765X0.411765X0*%
%ADD13RoundRect,0.155000X-0.212500X-0.155000X0.212500X-0.155000X0.212500X0.155000X-0.212500X0.155000X0*%
%ADD14RoundRect,0.160000X0.160000X-0.197500X0.160000X0.197500X-0.160000X0.197500X-0.160000X-0.197500X0*%
%ADD15RoundRect,0.350000X-0.550000X-0.350000X0.550000X-0.350000X0.550000X0.350000X-0.550000X0.350000X0*%
%ADD16RoundRect,0.350000X-0.350000X0.550000X-0.350000X-0.550000X0.350000X-0.550000X0.350000X0.550000X0*%
%ADD17RoundRect,0.529412X-0.370588X0.720588X-0.370588X-0.720588X0.370588X-0.720588X0.370588X0.720588X0*%
%ADD18RoundRect,0.160000X0.197500X0.160000X-0.197500X0.160000X-0.197500X-0.160000X0.197500X-0.160000X0*%
%ADD19RoundRect,0.160000X-0.197500X-0.160000X0.197500X-0.160000X0.197500X0.160000X-0.197500X0.160000X0*%
%ADD20RoundRect,0.150000X-0.587500X-0.150000X0.587500X-0.150000X0.587500X0.150000X-0.587500X0.150000X0*%
%ADD21RoundRect,0.237500X0.237500X-0.287500X0.237500X0.287500X-0.237500X0.287500X-0.237500X-0.287500X0*%
%ADD22R,1.300000X0.300000*%
%ADD23R,2.200000X1.800000*%
%ADD24RoundRect,0.155000X0.212500X0.155000X-0.212500X0.155000X-0.212500X-0.155000X0.212500X-0.155000X0*%
%ADD25RoundRect,0.090000X-0.090000X0.139000X-0.090000X-0.139000X0.090000X-0.139000X0.090000X0.139000X0*%
%ADD26RoundRect,0.150000X0.587500X0.150000X-0.587500X0.150000X-0.587500X-0.150000X0.587500X-0.150000X0*%
%ADD27RoundRect,0.075000X-0.700000X-0.075000X0.700000X-0.075000X0.700000X0.075000X-0.700000X0.075000X0*%
%ADD28RoundRect,0.075000X-0.075000X-0.700000X0.075000X-0.700000X0.075000X0.700000X-0.075000X0.700000X0*%
%ADD29RoundRect,0.090000X-0.139000X-0.090000X0.139000X-0.090000X0.139000X0.090000X-0.139000X0.090000X0*%
%ADD30RoundRect,0.090000X0.139000X0.090000X-0.139000X0.090000X-0.139000X-0.090000X0.139000X-0.090000X0*%
%ADD31RoundRect,0.100000X0.100000X-0.637500X0.100000X0.637500X-0.100000X0.637500X-0.100000X-0.637500X0*%
%ADD32R,0.730000X0.660000*%
%ADD33R,0.450000X0.630000*%
%ADD34RoundRect,0.237500X-0.237500X0.250000X-0.237500X-0.250000X0.237500X-0.250000X0.237500X0.250000X0*%
%ADD35RoundRect,0.150000X0.636396X1.131371X-1.131371X-0.636396X-0.636396X-1.131371X1.131371X0.636396X0*%
%ADD36RoundRect,0.150000X1.131371X-0.636396X-0.636396X1.131371X-1.131371X0.636396X0.636396X-1.131371X0*%
%ADD37RoundRect,0.529412X-0.370588X0.670588X-0.370588X-0.670588X0.370588X-0.670588X0.370588X0.670588X0*%
%ADD38RoundRect,0.350000X0.550000X0.350000X-0.550000X0.350000X-0.550000X-0.350000X0.550000X-0.350000X0*%
G04 APERTURE END LIST*
D10*
%TO.C,C9*%
X36566488Y-44430000D03*
X36566488Y-43565000D03*
%TD*%
D11*
%TO.C,Y1*%
X35100000Y-39195000D03*
X35100000Y-37445000D03*
X33700000Y-37445000D03*
X33700000Y-39195000D03*
%TD*%
D12*
%TO.C,J10*%
X20575000Y-46730000D03*
X20575000Y-49270000D03*
%TD*%
D13*
%TO.C,C1*%
X49932500Y-36200000D03*
X51067500Y-36200000D03*
%TD*%
D14*
%TO.C,R12*%
X59870000Y-32247500D03*
X59870000Y-31052500D03*
%TD*%
D12*
%TO.C,J9*%
X20575000Y-23385000D03*
X20575000Y-25925000D03*
%TD*%
D15*
%TO.C,J3*%
X69800000Y-23550000D03*
X69800000Y-25550000D03*
X69800000Y-27550000D03*
%TD*%
D13*
%TO.C,C15*%
X23072500Y-50520000D03*
X24207500Y-50520000D03*
%TD*%
D16*
%TO.C,J11*%
X62800000Y-75000000D03*
X60800000Y-75000000D03*
X58800000Y-75000000D03*
X56800000Y-75000000D03*
%TD*%
D17*
%TO.C,J7*%
X29270000Y-77000000D03*
X26730000Y-77000000D03*
%TD*%
D18*
%TO.C,R3*%
X35040000Y-35025000D03*
X33845000Y-35025000D03*
%TD*%
D19*
%TO.C,R8*%
X35902500Y-19950000D03*
X37097500Y-19950000D03*
%TD*%
D20*
%TO.C,Q5*%
X59862500Y-33600000D03*
X59862500Y-35500000D03*
X61737500Y-34550000D03*
%TD*%
D21*
%TO.C,D22*%
X27200000Y-47315000D03*
X27200000Y-45565000D03*
%TD*%
D19*
%TO.C,R1*%
X55492500Y-20740000D03*
X56687500Y-20740000D03*
%TD*%
D22*
%TO.C,J1*%
X64750000Y-57750000D03*
X64750000Y-57250000D03*
X64750000Y-56750000D03*
X64750000Y-56250000D03*
X64750000Y-55750000D03*
X64750000Y-55250000D03*
X64750000Y-54750000D03*
X64750000Y-54250000D03*
X64750000Y-53750000D03*
X64750000Y-53250000D03*
X64750000Y-52750000D03*
X64750000Y-52250000D03*
X64750000Y-51750000D03*
X64750000Y-51250000D03*
X64750000Y-50750000D03*
X64750000Y-50250000D03*
X64750000Y-49750000D03*
X64750000Y-49250000D03*
X64750000Y-48750000D03*
X64750000Y-48250000D03*
X64750000Y-47750000D03*
X64750000Y-47250000D03*
X64750000Y-46750000D03*
X64750000Y-46250000D03*
X64750000Y-45750000D03*
X64750000Y-45250000D03*
X64750000Y-44750000D03*
X64750000Y-44250000D03*
X64750000Y-43750000D03*
X64750000Y-43250000D03*
X64750000Y-42750000D03*
X64750000Y-42250000D03*
X64750000Y-41750000D03*
X64750000Y-41250000D03*
X64750000Y-40750000D03*
X64750000Y-40250000D03*
X64750000Y-39750000D03*
X64750000Y-39250000D03*
X64750000Y-38750000D03*
X64750000Y-38250000D03*
D23*
X68000000Y-36350000D03*
X68000000Y-59650000D03*
%TD*%
D24*
%TO.C,C16*%
X25352500Y-45560000D03*
X24217500Y-45560000D03*
%TD*%
D25*
%TO.C,C12*%
X48366488Y-47840000D03*
X48366488Y-48705000D03*
%TD*%
D26*
%TO.C,Q4*%
X28937500Y-32950000D03*
X28937500Y-31050000D03*
X27062500Y-32000000D03*
%TD*%
D19*
%TO.C,R14*%
X35902500Y-77950000D03*
X37097500Y-77950000D03*
%TD*%
D27*
%TO.C,U2*%
X38061488Y-38247500D03*
X38061488Y-38747500D03*
X38061488Y-39247500D03*
X38061488Y-39747500D03*
X38061488Y-40247500D03*
X38061488Y-40747500D03*
X38061488Y-41247500D03*
X38061488Y-41747500D03*
X38061488Y-42247500D03*
X38061488Y-42747500D03*
X38061488Y-43247500D03*
X38061488Y-43747500D03*
X38061488Y-44247500D03*
X38061488Y-44747500D03*
X38061488Y-45247500D03*
X38061488Y-45747500D03*
D28*
X39986488Y-47672500D03*
X40486488Y-47672500D03*
X40986488Y-47672500D03*
X41486488Y-47672500D03*
X41986488Y-47672500D03*
X42486488Y-47672500D03*
X42986488Y-47672500D03*
X43486488Y-47672500D03*
X43986488Y-47672500D03*
X44486488Y-47672500D03*
X44986488Y-47672500D03*
X45486488Y-47672500D03*
X45986488Y-47672500D03*
X46486488Y-47672500D03*
X46986488Y-47672500D03*
X47486488Y-47672500D03*
D27*
X49411488Y-45747500D03*
X49411488Y-45247500D03*
X49411488Y-44747500D03*
X49411488Y-44247500D03*
X49411488Y-43747500D03*
X49411488Y-43247500D03*
X49411488Y-42747500D03*
X49411488Y-42247500D03*
X49411488Y-41747500D03*
X49411488Y-41247500D03*
X49411488Y-40747500D03*
X49411488Y-40247500D03*
X49411488Y-39747500D03*
X49411488Y-39247500D03*
X49411488Y-38747500D03*
X49411488Y-38247500D03*
D28*
X47486488Y-36322500D03*
X46986488Y-36322500D03*
X46486488Y-36322500D03*
X45986488Y-36322500D03*
X45486488Y-36322500D03*
X44986488Y-36322500D03*
X44486488Y-36322500D03*
X43986488Y-36322500D03*
X43486488Y-36322500D03*
X42986488Y-36322500D03*
X42486488Y-36322500D03*
X41986488Y-36322500D03*
X41486488Y-36322500D03*
X40986488Y-36322500D03*
X40486488Y-36322500D03*
X39986488Y-36322500D03*
%TD*%
D19*
%TO.C,R10*%
X25502500Y-64150000D03*
X26697500Y-64150000D03*
%TD*%
D29*
%TO.C,C6*%
X46302500Y-21520000D03*
X45437500Y-21520000D03*
%TD*%
D30*
%TO.C,C3*%
X44232500Y-30000000D03*
X43367500Y-30000000D03*
%TD*%
D29*
%TO.C,C11*%
X49583988Y-37407500D03*
X50448988Y-37407500D03*
%TD*%
D24*
%TO.C,C2*%
X34947500Y-40563000D03*
X33812500Y-40563000D03*
%TD*%
D10*
%TO.C,C7*%
X39066488Y-48705000D03*
X39066488Y-47840000D03*
%TD*%
%TO.C,C13*%
X39066488Y-36160000D03*
X39066488Y-35295000D03*
%TD*%
D29*
%TO.C,C5*%
X37033988Y-37357500D03*
X37898988Y-37357500D03*
%TD*%
D31*
%TO.C,U1*%
X42945000Y-28662500D03*
X43595000Y-28662500D03*
X44245000Y-28662500D03*
X44895000Y-28662500D03*
X45545000Y-28662500D03*
X46195000Y-28662500D03*
X46845000Y-28662500D03*
X47495000Y-28662500D03*
X48145000Y-28662500D03*
X48795000Y-28662500D03*
X48795000Y-22937500D03*
X48145000Y-22937500D03*
X47495000Y-22937500D03*
X46845000Y-22937500D03*
X46195000Y-22937500D03*
X45545000Y-22937500D03*
X44895000Y-22937500D03*
X44245000Y-22937500D03*
X43595000Y-22937500D03*
X42945000Y-22937500D03*
%TD*%
D20*
%TO.C,Q6*%
X59862500Y-65600000D03*
X59862500Y-67500000D03*
X61737500Y-66550000D03*
%TD*%
D13*
%TO.C,C4*%
X33872500Y-36085000D03*
X35007500Y-36085000D03*
%TD*%
D32*
%TO.C,U4*%
X23534000Y-48425000D03*
X24400000Y-48425000D03*
X24400000Y-47575000D03*
X25266000Y-48425000D03*
X25266000Y-47575000D03*
X23534000Y-47575000D03*
D33*
X23450000Y-49340000D03*
X24400000Y-49340000D03*
X25350000Y-49340000D03*
X25350000Y-46660000D03*
X24400000Y-46660000D03*
X23450000Y-46660000D03*
%TD*%
D34*
%TO.C,R15*%
X27200000Y-49087500D03*
X27200000Y-50912500D03*
%TD*%
D35*
%TO.C,U3*%
X32887533Y-63861171D03*
X33948193Y-64921831D03*
X35008853Y-65982491D03*
X36069513Y-67043151D03*
X37130174Y-68103811D03*
X38190834Y-69164472D03*
X39251494Y-70225132D03*
X40312154Y-71285792D03*
X41372814Y-72346452D03*
X42433474Y-73407112D03*
X43494135Y-74467773D03*
X44554795Y-75528433D03*
X45615455Y-76589093D03*
D36*
X48493380Y-76963859D03*
X55918001Y-69539238D03*
D35*
X55514950Y-66689598D03*
X54454290Y-65628938D03*
X53393630Y-64568278D03*
X52332969Y-63507617D03*
X51272309Y-62446957D03*
X50211649Y-61386297D03*
X49150989Y-60325637D03*
X48090329Y-59264977D03*
X47029669Y-58204317D03*
X45969008Y-57143656D03*
X44908348Y-56082996D03*
X43847688Y-55022336D03*
X42787028Y-53961676D03*
%TD*%
D26*
%TO.C,Q2*%
X34137500Y-19950000D03*
X34137500Y-18050000D03*
X32262500Y-19000000D03*
%TD*%
%TO.C,Q7*%
X34137500Y-77950000D03*
X34137500Y-76050000D03*
X32262500Y-77000000D03*
%TD*%
D14*
%TO.C,R13*%
X59860000Y-64247500D03*
X59860000Y-63052500D03*
%TD*%
D37*
%TO.C,J4*%
X47150000Y-19000000D03*
X44610000Y-19000000D03*
X42070000Y-19000000D03*
X39530000Y-19000000D03*
%TD*%
D29*
%TO.C,C8*%
X35432500Y-41500000D03*
X34567500Y-41500000D03*
%TD*%
D16*
%TO.C,J12*%
X64500000Y-19000000D03*
X62500000Y-19000000D03*
X60500000Y-19000000D03*
%TD*%
D19*
%TO.C,R11*%
X30502500Y-32950000D03*
X31697500Y-32950000D03*
%TD*%
D17*
%TO.C,J8*%
X29270000Y-19000000D03*
X26730000Y-19000000D03*
%TD*%
D26*
%TO.C,Q3*%
X23937500Y-64150000D03*
X23937500Y-62250000D03*
X22062500Y-63200000D03*
%TD*%
D38*
%TO.C,J2*%
X69800000Y-72450000D03*
X69800000Y-70450000D03*
X69800000Y-68450000D03*
%TD*%
M02*
