%TF.GenerationSoftware,KiCad,Pcbnew,(6.0.5-0)*%
%TF.CreationDate,2024-03-28T12:00:15+03:00*%
%TF.ProjectId,cd_sunalarm,63645f73-756e-4616-9c61-726d2e6b6963,rev?*%
%TF.SameCoordinates,Original*%
%TF.FileFunction,Soldermask,Top*%
%TF.FilePolarity,Negative*%
%FSLAX46Y46*%
G04 Gerber Fmt 4.6, Leading zero omitted, Abs format (unit mm)*
G04 Created by KiCad (PCBNEW (6.0.5-0)) date 2024-03-28 12:00:15*
%MOMM*%
%LPD*%
G01*
G04 APERTURE LIST*
G04 Aperture macros list*
%AMRoundRect*
0 Rectangle with rounded corners*
0 $1 Rounding radius*
0 $2 $3 $4 $5 $6 $7 $8 $9 X,Y pos of 4 corners*
0 Add a 4 corners polygon primitive as box body*
4,1,4,$2,$3,$4,$5,$6,$7,$8,$9,$2,$3,0*
0 Add four circle primitives for the rounded corners*
1,1,$1+$1,$2,$3*
1,1,$1+$1,$4,$5*
1,1,$1+$1,$6,$7*
1,1,$1+$1,$8,$9*
0 Add four rect primitives between the rounded corners*
20,1,$1+$1,$2,$3,$4,$5,0*
20,1,$1+$1,$4,$5,$6,$7,0*
20,1,$1+$1,$6,$7,$8,$9,0*
20,1,$1+$1,$8,$9,$2,$3,0*%
%AMFreePoly0*
4,1,22,0.550000,-0.750000,0.000000,-0.750000,0.000000,-0.745033,-0.079941,-0.743568,-0.215256,-0.701293,-0.333266,-0.622738,-0.424486,-0.514219,-0.481581,-0.384460,-0.499164,-0.250000,-0.500000,-0.250000,-0.500000,0.250000,-0.499164,0.250000,-0.499963,0.256109,-0.478152,0.396186,-0.417904,0.524511,-0.324060,0.630769,-0.204165,0.706417,-0.067858,0.745374,0.000000,0.744959,0.000000,0.750000,
0.550000,0.750000,0.550000,-0.750000,0.550000,-0.750000,$1*%
%AMFreePoly1*
4,1,20,0.000000,0.744959,0.073905,0.744508,0.209726,0.703889,0.328688,0.626782,0.421226,0.519385,0.479903,0.390333,0.500000,0.250000,0.500000,-0.250000,0.499851,-0.262216,0.476331,-0.402017,0.414519,-0.529596,0.319384,-0.634700,0.198574,-0.708877,0.061801,-0.746166,0.000000,-0.745033,0.000000,-0.750000,-0.550000,-0.750000,-0.550000,0.750000,0.000000,0.750000,0.000000,0.744959,
0.000000,0.744959,$1*%
G04 Aperture macros list end*
%ADD10RoundRect,0.100000X0.100000X-0.217500X0.100000X0.217500X-0.100000X0.217500X-0.100000X-0.217500X0*%
%ADD11R,1.000000X1.150000*%
%ADD12RoundRect,0.588235X-0.811765X-0.411765X0.811765X-0.411765X0.811765X0.411765X-0.811765X0.411765X0*%
%ADD13FreePoly0,0.000000*%
%ADD14R,1.000000X1.500000*%
%ADD15FreePoly1,0.000000*%
%ADD16C,1.500000*%
%ADD17RoundRect,0.155000X-0.212500X-0.155000X0.212500X-0.155000X0.212500X0.155000X-0.212500X0.155000X0*%
%ADD18RoundRect,0.160000X0.160000X-0.197500X0.160000X0.197500X-0.160000X0.197500X-0.160000X-0.197500X0*%
%ADD19RoundRect,0.350000X-0.550000X-0.350000X0.550000X-0.350000X0.550000X0.350000X-0.550000X0.350000X0*%
%ADD20RoundRect,0.350000X-0.350000X0.550000X-0.350000X-0.550000X0.350000X-0.550000X0.350000X0.550000X0*%
%ADD21RoundRect,0.529412X-0.370588X0.720588X-0.370588X-0.720588X0.370588X-0.720588X0.370588X0.720588X0*%
%ADD22RoundRect,0.160000X0.197500X0.160000X-0.197500X0.160000X-0.197500X-0.160000X0.197500X-0.160000X0*%
%ADD23RoundRect,0.160000X-0.197500X-0.160000X0.197500X-0.160000X0.197500X0.160000X-0.197500X0.160000X0*%
%ADD24RoundRect,0.150000X-0.587500X-0.150000X0.587500X-0.150000X0.587500X0.150000X-0.587500X0.150000X0*%
%ADD25RoundRect,0.237500X0.237500X-0.287500X0.237500X0.287500X-0.237500X0.287500X-0.237500X-0.287500X0*%
%ADD26R,1.300000X0.300000*%
%ADD27R,2.200000X1.800000*%
%ADD28RoundRect,0.155000X0.212500X0.155000X-0.212500X0.155000X-0.212500X-0.155000X0.212500X-0.155000X0*%
%ADD29RoundRect,0.100000X-0.100000X0.217500X-0.100000X-0.217500X0.100000X-0.217500X0.100000X0.217500X0*%
%ADD30RoundRect,0.150000X0.587500X0.150000X-0.587500X0.150000X-0.587500X-0.150000X0.587500X-0.150000X0*%
%ADD31RoundRect,0.075000X-0.700000X-0.075000X0.700000X-0.075000X0.700000X0.075000X-0.700000X0.075000X0*%
%ADD32RoundRect,0.075000X-0.075000X-0.700000X0.075000X-0.700000X0.075000X0.700000X-0.075000X0.700000X0*%
%ADD33RoundRect,0.100000X-0.217500X-0.100000X0.217500X-0.100000X0.217500X0.100000X-0.217500X0.100000X0*%
%ADD34RoundRect,0.100000X0.217500X0.100000X-0.217500X0.100000X-0.217500X-0.100000X0.217500X-0.100000X0*%
%ADD35C,4.400000*%
%ADD36RoundRect,0.100000X0.100000X-0.637500X0.100000X0.637500X-0.100000X0.637500X-0.100000X-0.637500X0*%
%ADD37R,0.450000X0.630000*%
%ADD38R,2.600000X1.700000*%
%ADD39RoundRect,0.237500X-0.237500X0.250000X-0.237500X-0.250000X0.237500X-0.250000X0.237500X0.250000X0*%
%ADD40RoundRect,0.150000X0.636396X1.131371X-1.131371X-0.636396X-0.636396X-1.131371X1.131371X0.636396X0*%
%ADD41RoundRect,0.150000X1.131371X-0.636396X-0.636396X1.131371X-1.131371X0.636396X0.636396X-1.131371X0*%
%ADD42RoundRect,0.529412X-0.370588X0.670588X-0.370588X-0.670588X0.370588X-0.670588X0.370588X0.670588X0*%
%ADD43RoundRect,0.350000X0.550000X0.350000X-0.550000X0.350000X-0.550000X-0.350000X0.550000X-0.350000X0*%
%ADD44O,0.580000X1.000000*%
%ADD45C,0.660000*%
%ADD46C,1.100000*%
%ADD47R,1.300000X1.300000*%
%ADD48C,1.300000*%
%ADD49O,1.900000X2.900000*%
%ADD50O,2.900000X1.900000*%
G04 APERTURE END LIST*
D10*
%TO.C,C9*%
X36566488Y-44405000D03*
X36566488Y-43590000D03*
%TD*%
D11*
%TO.C,Y1*%
X35100000Y-39195000D03*
X35100000Y-37445000D03*
X33700000Y-37445000D03*
X33700000Y-39195000D03*
%TD*%
D12*
%TO.C,J10*%
X20575000Y-46730000D03*
X20575000Y-49270000D03*
%TD*%
D13*
%TO.C,JP3*%
X38450000Y-27600000D03*
D14*
X39750000Y-27600000D03*
D15*
X41050000Y-27600000D03*
%TD*%
D16*
%TO.C,TP4*%
X52090000Y-23000000D03*
%TD*%
D17*
%TO.C,C1*%
X49932500Y-36200000D03*
X51067500Y-36200000D03*
%TD*%
D18*
%TO.C,R12*%
X59870000Y-32247500D03*
X59870000Y-31052500D03*
%TD*%
D12*
%TO.C,J9*%
X20575000Y-23385000D03*
X20575000Y-25925000D03*
%TD*%
D19*
%TO.C,J3*%
X69800000Y-23550000D03*
X69800000Y-25550000D03*
X69800000Y-27550000D03*
%TD*%
D17*
%TO.C,C15*%
X23072500Y-50520000D03*
X24207500Y-50520000D03*
%TD*%
D20*
%TO.C,J11*%
X62800000Y-75000000D03*
X60800000Y-75000000D03*
X58800000Y-75000000D03*
X56800000Y-75000000D03*
%TD*%
D21*
%TO.C,J7*%
X29270000Y-77000000D03*
X26730000Y-77000000D03*
%TD*%
D22*
%TO.C,R3*%
X35040000Y-35025000D03*
X33845000Y-35025000D03*
%TD*%
D23*
%TO.C,R8*%
X35902500Y-19950000D03*
X37097500Y-19950000D03*
%TD*%
D24*
%TO.C,Q5*%
X59862500Y-33600000D03*
X59862500Y-35500000D03*
X61737500Y-34550000D03*
%TD*%
D13*
%TO.C,JP2*%
X50790000Y-18940000D03*
D14*
X52090000Y-18940000D03*
D15*
X53390000Y-18940000D03*
%TD*%
D25*
%TO.C,D22*%
X27200000Y-47315000D03*
X27200000Y-45565000D03*
%TD*%
D23*
%TO.C,R1*%
X55492500Y-20740000D03*
X56687500Y-20740000D03*
%TD*%
D26*
%TO.C,J1*%
X64750000Y-57750000D03*
X64750000Y-57250000D03*
X64750000Y-56750000D03*
X64750000Y-56250000D03*
X64750000Y-55750000D03*
X64750000Y-55250000D03*
X64750000Y-54750000D03*
X64750000Y-54250000D03*
X64750000Y-53750000D03*
X64750000Y-53250000D03*
X64750000Y-52750000D03*
X64750000Y-52250000D03*
X64750000Y-51750000D03*
X64750000Y-51250000D03*
X64750000Y-50750000D03*
X64750000Y-50250000D03*
X64750000Y-49750000D03*
X64750000Y-49250000D03*
X64750000Y-48750000D03*
X64750000Y-48250000D03*
X64750000Y-47750000D03*
X64750000Y-47250000D03*
X64750000Y-46750000D03*
X64750000Y-46250000D03*
X64750000Y-45750000D03*
X64750000Y-45250000D03*
X64750000Y-44750000D03*
X64750000Y-44250000D03*
X64750000Y-43750000D03*
X64750000Y-43250000D03*
X64750000Y-42750000D03*
X64750000Y-42250000D03*
X64750000Y-41750000D03*
X64750000Y-41250000D03*
X64750000Y-40750000D03*
X64750000Y-40250000D03*
X64750000Y-39750000D03*
X64750000Y-39250000D03*
X64750000Y-38750000D03*
X64750000Y-38250000D03*
D27*
X68000000Y-36350000D03*
X68000000Y-59650000D03*
%TD*%
D28*
%TO.C,C16*%
X25352500Y-45560000D03*
X24217500Y-45560000D03*
%TD*%
D29*
%TO.C,C12*%
X48366488Y-47865000D03*
X48366488Y-48680000D03*
%TD*%
D30*
%TO.C,Q4*%
X28937500Y-32950000D03*
X28937500Y-31050000D03*
X27062500Y-32000000D03*
%TD*%
D23*
%TO.C,R14*%
X35902500Y-77950000D03*
X37097500Y-77950000D03*
%TD*%
D31*
%TO.C,U2*%
X38061488Y-38247500D03*
X38061488Y-38747500D03*
X38061488Y-39247500D03*
X38061488Y-39747500D03*
X38061488Y-40247500D03*
X38061488Y-40747500D03*
X38061488Y-41247500D03*
X38061488Y-41747500D03*
X38061488Y-42247500D03*
X38061488Y-42747500D03*
X38061488Y-43247500D03*
X38061488Y-43747500D03*
X38061488Y-44247500D03*
X38061488Y-44747500D03*
X38061488Y-45247500D03*
X38061488Y-45747500D03*
D32*
X39986488Y-47672500D03*
X40486488Y-47672500D03*
X40986488Y-47672500D03*
X41486488Y-47672500D03*
X41986488Y-47672500D03*
X42486488Y-47672500D03*
X42986488Y-47672500D03*
X43486488Y-47672500D03*
X43986488Y-47672500D03*
X44486488Y-47672500D03*
X44986488Y-47672500D03*
X45486488Y-47672500D03*
X45986488Y-47672500D03*
X46486488Y-47672500D03*
X46986488Y-47672500D03*
X47486488Y-47672500D03*
D31*
X49411488Y-45747500D03*
X49411488Y-45247500D03*
X49411488Y-44747500D03*
X49411488Y-44247500D03*
X49411488Y-43747500D03*
X49411488Y-43247500D03*
X49411488Y-42747500D03*
X49411488Y-42247500D03*
X49411488Y-41747500D03*
X49411488Y-41247500D03*
X49411488Y-40747500D03*
X49411488Y-40247500D03*
X49411488Y-39747500D03*
X49411488Y-39247500D03*
X49411488Y-38747500D03*
X49411488Y-38247500D03*
D32*
X47486488Y-36322500D03*
X46986488Y-36322500D03*
X46486488Y-36322500D03*
X45986488Y-36322500D03*
X45486488Y-36322500D03*
X44986488Y-36322500D03*
X44486488Y-36322500D03*
X43986488Y-36322500D03*
X43486488Y-36322500D03*
X42986488Y-36322500D03*
X42486488Y-36322500D03*
X41986488Y-36322500D03*
X41486488Y-36322500D03*
X40986488Y-36322500D03*
X40486488Y-36322500D03*
X39986488Y-36322500D03*
%TD*%
D23*
%TO.C,R10*%
X25502500Y-64150000D03*
X26697500Y-64150000D03*
%TD*%
D33*
%TO.C,C6*%
X45462500Y-21520000D03*
X46277500Y-21520000D03*
%TD*%
D34*
%TO.C,C3*%
X44207500Y-30000000D03*
X43392500Y-30000000D03*
%TD*%
D33*
%TO.C,C11*%
X49608988Y-37407500D03*
X50423988Y-37407500D03*
%TD*%
D28*
%TO.C,C2*%
X34947500Y-40563000D03*
X33812500Y-40563000D03*
%TD*%
D10*
%TO.C,C7*%
X39066488Y-48680000D03*
X39066488Y-47865000D03*
%TD*%
D35*
%TO.C,REF\u002A\u002A*%
X21080000Y-18810000D03*
%TD*%
D10*
%TO.C,C13*%
X39066488Y-36135000D03*
X39066488Y-35320000D03*
%TD*%
D33*
%TO.C,C5*%
X37058988Y-37357500D03*
X37873988Y-37357500D03*
%TD*%
D36*
%TO.C,U1*%
X42945000Y-28662500D03*
X43595000Y-28662500D03*
X44245000Y-28662500D03*
X44895000Y-28662500D03*
X45545000Y-28662500D03*
X46195000Y-28662500D03*
X46845000Y-28662500D03*
X47495000Y-28662500D03*
X48145000Y-28662500D03*
X48795000Y-28662500D03*
X48795000Y-22937500D03*
X48145000Y-22937500D03*
X47495000Y-22937500D03*
X46845000Y-22937500D03*
X46195000Y-22937500D03*
X45545000Y-22937500D03*
X44895000Y-22937500D03*
X44245000Y-22937500D03*
X43595000Y-22937500D03*
X42945000Y-22937500D03*
%TD*%
D35*
%TO.C,REF\u002A\u002A*%
X69130000Y-18830000D03*
%TD*%
D13*
%TO.C,JP1*%
X55390000Y-18940000D03*
D14*
X56690000Y-18940000D03*
D15*
X57990000Y-18940000D03*
%TD*%
D24*
%TO.C,Q6*%
X59862500Y-65600000D03*
X59862500Y-67500000D03*
X61737500Y-66550000D03*
%TD*%
D17*
%TO.C,C4*%
X33872500Y-36085000D03*
X35007500Y-36085000D03*
%TD*%
D37*
%TO.C,U4*%
X23450000Y-49340000D03*
X24400000Y-49340000D03*
X25350000Y-49340000D03*
X25350000Y-46660000D03*
X24400000Y-46660000D03*
X23450000Y-46660000D03*
D38*
X24400000Y-48000000D03*
%TD*%
D39*
%TO.C,R15*%
X27200000Y-49087500D03*
X27200000Y-50912500D03*
%TD*%
D40*
%TO.C,U3*%
X32887533Y-63861171D03*
X33948193Y-64921831D03*
X35008853Y-65982491D03*
X36069513Y-67043151D03*
X37130174Y-68103811D03*
X38190834Y-69164472D03*
X39251494Y-70225132D03*
X40312154Y-71285792D03*
X41372814Y-72346452D03*
X42433474Y-73407112D03*
X43494135Y-74467773D03*
X44554795Y-75528433D03*
X45615455Y-76589093D03*
D41*
X48493380Y-76963859D03*
X55918001Y-69539238D03*
D40*
X55514950Y-66689598D03*
X54454290Y-65628938D03*
X53393630Y-64568278D03*
X52332969Y-63507617D03*
X51272309Y-62446957D03*
X50211649Y-61386297D03*
X49150989Y-60325637D03*
X48090329Y-59264977D03*
X47029669Y-58204317D03*
X45969008Y-57143656D03*
X44908348Y-56082996D03*
X43847688Y-55022336D03*
X42787028Y-53961676D03*
%TD*%
D16*
%TO.C,TP1*%
X34810000Y-44400000D03*
%TD*%
D30*
%TO.C,Q2*%
X34137500Y-19950000D03*
X34137500Y-18050000D03*
X32262500Y-19000000D03*
%TD*%
%TO.C,Q7*%
X34137500Y-77950000D03*
X34137500Y-76050000D03*
X32262500Y-77000000D03*
%TD*%
D18*
%TO.C,R13*%
X59860000Y-64247500D03*
X59860000Y-63052500D03*
%TD*%
D42*
%TO.C,J4*%
X47150000Y-19000000D03*
X44610000Y-19000000D03*
X42070000Y-19000000D03*
X39530000Y-19000000D03*
%TD*%
D13*
%TO.C,JP4*%
X38450000Y-23800000D03*
D14*
X39750000Y-23800000D03*
D15*
X41050000Y-23800000D03*
%TD*%
D33*
%TO.C,C8*%
X34592500Y-41500000D03*
X35407500Y-41500000D03*
%TD*%
D20*
%TO.C,J12*%
X64500000Y-19000000D03*
X62500000Y-19000000D03*
X60500000Y-19000000D03*
%TD*%
D35*
%TO.C,REF\u002A\u002A*%
X69120000Y-77170000D03*
%TD*%
%TO.C,REF\u002A\u002A*%
X21070000Y-77140000D03*
%TD*%
D23*
%TO.C,R11*%
X30502500Y-32950000D03*
X31697500Y-32950000D03*
%TD*%
D21*
%TO.C,J8*%
X29270000Y-19000000D03*
X26730000Y-19000000D03*
%TD*%
D30*
%TO.C,Q3*%
X23937500Y-64150000D03*
X23937500Y-62250000D03*
X22062500Y-63200000D03*
%TD*%
D43*
%TO.C,J2*%
X69800000Y-72450000D03*
X69800000Y-70450000D03*
X69800000Y-68450000D03*
%TD*%
D16*
%TO.C,TP3*%
X55492500Y-23000000D03*
%TD*%
%TO.C,TP2*%
X39070000Y-33200000D03*
%TD*%
D44*
%TO.C,P2*%
X28000000Y-35750000D03*
D45*
X28000000Y-28250000D03*
D46*
X25850000Y-29600000D03*
X25850000Y-34400000D03*
X30150000Y-29600000D03*
X30150000Y-34400000D03*
%TD*%
D47*
%TO.C,J5*%
X57950000Y-35500000D03*
D48*
X57950000Y-33000000D03*
X57950000Y-31000000D03*
X57950000Y-28500000D03*
D49*
X62730000Y-32000000D03*
D50*
X58550000Y-38570000D03*
X58550000Y-25430000D03*
%TD*%
D44*
%TO.C,P1*%
X28000000Y-67750000D03*
D45*
X28000000Y-60250000D03*
D46*
X25850000Y-66400000D03*
X25850000Y-61600000D03*
X30150000Y-61600000D03*
X30150000Y-66400000D03*
%TD*%
D47*
%TO.C,J6*%
X57950000Y-67500000D03*
D48*
X57950000Y-65000000D03*
X57950000Y-63000000D03*
X57950000Y-60500000D03*
D50*
X58550000Y-70570000D03*
X58550000Y-57430000D03*
D49*
X62730000Y-64000000D03*
%TD*%
M02*
