M48
; DRILL file {KiCad (6.0.5-0)} date 
; FORMAT={-:-/ absolute / metric / decimal}
; #@! TF.CreationDate,2024-03-28T12:00:18+03:00
; #@! TF.GenerationSoftware,Kicad,Pcbnew,(6.0.5-0)
; #@! TF.FileFunction,Plated,1,4,PTH
FMAT,2
METRIC
; #@! TA.AperFunction,Plated,PTH,ViaDrill
T1C0.300
; #@! TA.AperFunction,Plated,PTH,ViaDrill
T2C0.400
; #@! TA.AperFunction,Plated,PTH,ComponentDrill
T3C0.700
; #@! TA.AperFunction,Plated,PTH,ComponentDrill
T4C0.900
; #@! TA.AperFunction,Plated,PTH,ComponentDrill
T5C1.300
; #@! TA.AperFunction,Plated,PTH,ComponentDrill
T6C2.600
%
G90
G05
T1
X19.32Y-77.165
X19.33Y-18.835
X19.542Y-76.287
X19.552Y-17.957
X19.567Y-78.037
X19.577Y-19.707
X20.173Y-75.637
X20.18Y-30.79
X20.183Y-17.307
X20.2Y-60.35
X20.217Y-78.668
X20.227Y-20.338
X20.58Y-50.9
X21.045Y-75.39
X21.055Y-17.06
X21.095Y-78.89
X21.105Y-20.56
X21.923Y-75.612
X21.933Y-17.282
X21.967Y-78.643
X21.977Y-20.313
X22.573Y-76.243
X22.583Y-17.913
X22.598Y-77.993
X22.608Y-19.663
X22.82Y-77.115
X22.83Y-18.785
X23.38Y-65.2
X23.4Y-33.21
X23.49Y-45.56
X25.42Y-44.33
X26.19Y-45.56
X26.33Y-44.33
X26.79Y-41.6
X26.79Y-73.6
X26.8Y-25.6
X26.8Y-57.61
X27.28Y-44.33
X28.005Y-23.385
X29.2Y-22.41
X29.2Y-38.4
X29.2Y-54.4
X29.2Y-70.4
X29.86Y-63.1
X29.97Y-32.0
X30.45Y-72.46
X32.6Y-30.79
X32.6Y-62.8
X32.61Y-35.72
X33.935Y-41.265
X35.8Y-33.2
X36.15Y-45.02
X36.47Y-46.1
X37.06Y-36.67
X37.874Y-36.676
X37.89Y-77.95
X38.06Y-46.36
X38.45Y-25.69
X38.514Y-58.24
X39.1Y-56.24
X39.302Y-43.979
X39.49Y-21.96
X39.87Y-44.75
X39.894Y-46.465
X40.703Y-49.06
X40.717Y-46.432
X40.802Y-31.198
X41.183Y-39.889
X41.264Y-38.54
X41.52Y-32.85
X41.65Y-39.24
X42.03Y-24.8
X42.07Y-21.96
X42.224Y-34.804
X42.49Y-37.43
X43.39Y-30.7
X43.7Y-35.039
X43.865Y-37.54
X43.89Y-21.61
X44.304Y-24.82
X44.49Y-35.16
X44.51Y-43.25
X44.54Y-27.33
X44.61Y-17.2
X44.73Y-21.52
X44.895Y-24.25
X45.153Y-38.736
X45.336Y-26.752
X45.49Y-35.17
X45.867Y-46.486
X45.89Y-74.19
X46.104Y-37.84
X46.49Y-35.04
X46.743Y-46.423
X46.99Y-37.58
X47.07Y-21.52
X47.141Y-27.458
X47.789Y-37.585
X48.443Y-27.481
X48.95Y-19.9
X49.06Y-48.68
X49.188Y-35.664
X49.61Y-22.94
X50.09Y-49.82
X50.1Y-35.41
X50.61Y-21.89
X51.02Y-41.06
X51.19Y-21.199
X51.2Y-30.8
X51.999Y-36.19
X52.71Y-27.49
X52.98Y-32.48
X53.433Y-52.215
X53.52Y-24.54
X53.568Y-51.322
X53.66Y-67.53
X53.92Y-31.6
X54.25Y-19.99
X54.4Y-33.2
X54.85Y-51.073
X54.96Y-40.49
X55.67Y-38.69
X55.97Y-25.09
X56.16Y-46.684
X56.39Y-32.39
X56.39Y-33.9
X56.4Y-30.84
X56.55Y-40.05
X56.72Y-47.309
X57.28Y-47.933
X57.903Y-48.558
X58.398Y-49.186
X58.8Y-22.6
X58.8Y-76.6
X58.88Y-49.824
X59.43Y-50.449
X61.403Y-19.954
X61.459Y-20.948
X62.44Y-72.06
X63.92Y-71.28
X64.5Y-20.4
X65.59Y-35.53
X65.6Y-62.8
X65.756Y-52.75
X65.8Y-43.78
X66.54Y-28.64
X67.0Y-25.55
X67.37Y-77.195
X67.38Y-18.855
X67.592Y-76.317
X67.602Y-17.977
X67.617Y-78.067
X67.627Y-19.727
X68.223Y-75.667
X68.233Y-17.327
X68.26Y-69.501
X68.267Y-78.698
X68.277Y-20.358
X68.79Y-33.2
X68.8Y-65.2
X69.095Y-75.42
X69.105Y-17.08
X69.145Y-78.92
X69.155Y-20.58
X69.8Y-22.05
X69.8Y-73.95
X69.973Y-75.642
X69.983Y-17.302
X70.017Y-78.673
X70.027Y-20.333
X70.623Y-76.273
X70.633Y-17.933
X70.648Y-78.023
X70.658Y-19.683
X70.87Y-77.145
X70.88Y-18.805
T2
X59.22Y-73.54
X60.8Y-76.27
T3
X25.85Y-29.6
X25.85Y-34.4
X25.85Y-61.6
X25.85Y-66.4
X30.15Y-29.6
X30.15Y-34.4
X30.15Y-61.6
X30.15Y-66.4
T4
X57.95Y-28.5
X57.95Y-31.0
X57.95Y-33.0
X57.95Y-35.5
X57.95Y-60.5
X57.95Y-63.0
X57.95Y-65.0
X57.95Y-67.5
T6
X21.07Y-77.14
X21.08Y-18.81
X69.12Y-77.17
X69.13Y-18.83
T5
G00X58.05Y-25.43
M15
G01X59.05Y-25.43
M16
G05
G00X59.05Y-38.57
M15
G01X58.05Y-38.57
M16
G05
G00X58.05Y-57.43
M15
G01X59.05Y-57.43
M16
G05
G00X59.05Y-70.57
M15
G01X58.05Y-70.57
M16
G05
G00X62.73Y-31.5
M15
G01X62.73Y-32.5
M16
G05
G00X62.73Y-63.5
M15
G01X62.73Y-64.5
M16
G05
T0
M30
